#!OML:ASF E:\acrobat2\Project_11_07_03\Capture day 1\Session 1\Acrobat.ASF
:FULLY-SPECIFIED
:DEGREES
620
root 14.166 5.23024 2.89617 93.776 29.8224 -175.95
lowerback 0.181113 0.373167 5.78828
upperback 1.79774 0.517614 3.24537
thorax 1.76838 0.370563 0.105656
lowerneck -8.3898 0.869336 -2.77165
upperneck 7.32386 1.1864 3.63946
head 3.86973 0.68275 1.78655
rclavicle 2.38542e-015 1.44715e-013
rhumerus -46.2292 20.4679 -81.2591
rradius 27.2682
rwrist 15.2819
rhand 0.108866 -37.022
rfingers 7.12502
rthumb 25.6946 -65.3077
lclavicle 2.38542e-015 1.44715e-013
lhumerus -30.1449 0.853619 66.2055
lradius 14.2436
lwrist -23.2414
lhand 16.3587 -4.95205
lfingers 7.12502
lthumb 41.129 19.9232
rfemur 1.33135 3.53756 33.9356
rtibia -1.78541
rfoot -0.163392 -21.7997
rtoes 42.7198
lfemur -0.532442 -6.00308 0.490538
ltibia -2.44326
lfoot 7.44949 13.7322
ltoes 14.7811
621
root 14.1648 5.2359 2.88438 93.3101 29.4017 -176.091
lowerback 0.572282 0.350118 5.54471
upperback 1.84545 0.512699 3.02124
thorax 1.59674 0.359786 0.006495
lowerneck -8.52978 0.857351 -2.6435
upperneck 7.27405 1.16455 3.55464
head 3.8807 0.671953 1.73448
rclavicle 1.98785e-014 5.88403e-014
rhumerus -46.1864 20.3344 -81.3219
rradius 27.1708
rwrist 15.1643
rhand 0.550999 -37.2155
rfingers 7.12502
rthumb 26.118 -65.4394
lclavicle 1.98785e-014 5.88403e-014
lhumerus -30.4875 -0.888216 66.9403
lradius 15.6423
lwrist -19.9359
lhand 16.0948 -4.35056
lfingers 7.12502
lthumb 40.8811 20.6035
rfemur 2.59206 3.35826 33.5091
rtibia -1.87453
rfoot -0.229532 -21.9541
rtoes 44.6894
lfemur 1.03424 -5.50496 0.135045
ltibia -2.14656
lfoot 6.57804 14.6275
ltoes 20.7561
622
root 14.1648 5.2432 2.87051 92.811 29.0091 -176.219
lowerback 1.00279 0.33174 5.3419
upperback 1.90019 0.514996 2.78453
thorax 1.41126 0.353737 -0.127975
lowerneck -8.58968 0.811642 -2.46313
upperneck 7.0986 1.09462 3.4323
head 3.8329 0.636127 1.65398
rclavicle -1.98785e-014 4.5472e-014
rhumerus -46.1759 20.1396 -81.3983
rradius 27.0315
rwrist 15.258
rhand 1.05679 -37.3604
rfingers 7.12502
rthumb 26.6022 -65.5118
lclavicle -1.98785e-014 4.5472e-014
lhumerus -30.8056 -2.50706 67.5891
lradius 17.0822
lwrist -16.8819
lhand 15.4501 -3.39551
lfingers 7.12502
lthumb 40.2752 21.7469
rfemur 3.80292 3.16477 33.0671
rtibia -2.05964
rfoot 0.0231511 -22.4184
rtoes 46.5122
lfemur 2.49174 -4.73886 -0.141729
ltibia -1.66932
lfoot 6.01989 15.7762
ltoes 27.4034
623
root 14.1662 5.25059 2.85526 92.3093 28.7438 -176.307
lowerback 1.47191 0.310684 5.26897
upperback 1.95325 0.517593 2.57375
thorax 1.20377 0.350436 -0.307985
lowerneck -8.75515 0.769311 -2.32391
upperneck 7.01878 1.02389 3.43247
head 3.84001 0.605563 1.62577
rclavicle 8.74653e-015 1.73937e-014
rhumerus -46.2068 19.911 -81.4843
rradius 26.8647
rwrist 15.4356
rhand 1.58175 -37.4601
rfingers 7.12502
rthumb 27.1045 -65.5343
lclavicle 8.74653e-015 1.73937e-014
lhumerus -31.0364 -3.77359 68.0476
lradius 18.3752
lwrist -14.3099
lhand 15.0078 -2.41849
lfingers 7.12502
lthumb 39.859 22.8499
rfemur 4.8768 2.94038 32.7238
rtibia -2.31578
rfoot 0.628422 -23.2183
rtoes 47.9542
lfemur 3.76367 -3.88843 -0.211988
ltibia -1.15818
lfoot 6.13121 17.0097
ltoes 31.8412
624
root 14.167 5.25631 2.84472 91.9637 28.6252 -176.344
lowerback 1.84095 0.300109 5.33356
upperback 1.95955 0.529785 2.40789
thorax 1.0061 0.353292 -0.517668
lowerneck -9.01673 0.724097 -2.22573
upperneck 7.0289 0.948136 3.50177
head 3.89839 0.575773 1.63098
rclavicle 3.18055e-014 -5.21313e-014
rhumerus -46.2893 19.6644 -81.5653
rradius 26.6846
rwrist 15.5704
rhand 2.05959 -37.5455
rfingers 7.12502
rthumb 27.5616 -65.5476
lclavicle 3.18055e-014 -5.21313e-014
lhumerus -31.1518 -4.72136 68.3499
lradius 19.4415
lwrist -12.2274
lhand 14.8202 -1.72947
lfingers 7.12502
lthumb 39.6823 23.5916
rfemur 5.56899 2.72396 32.5034
rtibia -2.53886
rfoot 1.26263 -24.2306
rtoes 48.8007
lfemur 4.62989 -3.09043 -0.0637499
ltibia -0.724658
lfoot 6.14529 19.0312
ltoes 36.3034
625
root 14.1664 5.25923 2.84114 91.8264 28.684 -176.318
lowerback 2.06841 0.312289 5.57611
upperback 1.90751 0.567129 2.30281
thorax 0.830854 0.369868 -0.763388
lowerneck -9.36482 0.664135 -2.19318
upperneck 7.11816 0.857111 3.60773
head 4.00312 0.539567 1.66214
rclavicle -1.74931e-014 5.04913e-014
rhumerus -46.4191 19.3584 -81.5966
rradius 26.4983
rwrist 15.6177
rhand 2.43892 -37.627
rfingers 7.12502
rthumb 27.9243 -65.5706
lclavicle -1.74931e-014 5.04913e-014
lhumerus -31.1506 -5.46804 68.5736
lradius 20.2851
lwrist -10.5656
lhand 14.789 -1.43101
lfingers 7.12502
lthumb 39.653 23.8988
rfemur 5.79935 2.4986 32.4517
rtibia -2.64447
rfoot 1.63409 -25.2527
rtoes 49.0542
lfemur 5.01315 -2.38476 0.316665
ltibia -0.441549
lfoot 5.92302 21.4154
ltoes 39.3692
626
root 14.1635 5.25935 2.8467 91.931 28.8728 -176.23
lowerback 2.10986 0.327245 5.91792
upperback 1.78601 0.598966 2.25502
thorax 0.689119 0.383202 -1.00432
lowerneck -9.58049 0.588859 -2.11585
upperneck 7.06036 0.753837 3.56008
head 4.02908 0.489542 1.62746
rclavicle 4.13472e-014 4.7112e-014
rhumerus -46.5738 19.0378 -81.5832
rradius 26.3001
rwrist 15.5951
rhand 2.7054 -37.7183
rfingers 7.12502
rthumb 28.179 -65.6203
lclavicle 4.13472e-014 4.7112e-014
lhumerus -31.1051 -6.04432 68.7395
lradius 20.9494
lwrist -9.17561
lhand 14.7606 -1.48938
lfingers 7.12502
lthumb 39.6262 23.8483
rfemur 5.55282 2.28642 32.528
rtibia -2.57671
rfoot 1.46283 -26.0562
rtoes 48.8242
lfemur 4.88516 -1.81704 0.838699
ltibia -0.306355
lfoot 5.04044 23.8248
ltoes 41.187
627
root 14.1583 5.25754 2.86178 92.2565 29.0987 -176.094
lowerback 1.95807 0.355968 6.259
upperback 1.61055 0.635233 2.24876
thorax 0.600301 0.397608 -1.2007
lowerneck -9.79503 0.530551 -2.08819
upperneck 7.00698 0.678606 3.52339
head 4.05548 0.452437 1.60721
rclavicle -2.62396e-014 4.6118e-014
rhumerus -46.7218 18.6861 -81.4845
rradius 26.0832
rwrist 15.5312
rhand 2.90599 -37.7835
rfingers 7.12502
rthumb 28.3707 -65.6537
lclavicle -2.62396e-014 4.6118e-014
lhumerus -31.0186 -6.48448 68.8927
lradius 21.4682
lwrist -7.89069
lhand 14.6619 -1.76855
lfingers 7.12502
lthumb 39.5333 23.5966
rfemur 4.9077 2.09668 32.6392
rtibia -2.34656
rfoot 0.617112 -26.4691
rtoes 48.3505
lfemur 4.31185 -1.48362 1.35435
ltibia -0.277292
lfoot 2.94544 25.9944
ltoes 42.5685
628
root 14.1521 5.25566 2.88154 92.657 29.2977 -175.926
lowerback 1.7232 0.388687 6.53719
upperback 1.42599 0.6687 2.26046
thorax 0.547723 0.410149 -1.34265
lowerneck -9.98545 0.481361 -2.11335
upperneck 6.9282 0.621119 3.50772
head 4.06752 0.423336 1.60404
rclavicle -5.80451e-014 1.70458e-014
rhumerus -46.8465 18.3118 -81.3156
rradius 25.8414
rwrist 15.4445
rhand 3.06809 -37.7831
rfingers 7.12502
rthumb 28.5256 -65.6274
lclavicle -5.80451e-014 1.70458e-014
lhumerus -30.9201 -6.8113 69.034
lradius 21.8907
lwrist -6.5517
lhand 14.4876 -2.1104
lfingers 7.12502
lthumb 39.3691 23.3029
rfemur 4.11343 1.92631 32.7236
rtibia -2.03121
rfoot -0.835263 -26.4114
rtoes 47.9104
lfemur 3.53055 -1.47629 1.76866
ltibia -0.335673
lfoot 0.478032 27.1772
ltoes 42.3818
629
root 14.1462 5.25524 2.90333 93.0449 29.4369 -175.75
lowerback 1.45947 0.417761 6.71504
upperback 1.26094 0.692008 2.27502
thorax 0.529481 0.417934 -1.42517
lowerneck -10.1246 0.43733 -2.17174
upperneck 6.7923 0.572729 3.52837
head 4.04876 0.399127 1.61827
rclavicle -1.11319e-014 6.21202e-014
rhumerus -46.9417 17.9471 -81.112
rradius 25.582
rwrist 15.3218
rhand 3.1698 -37.7336
rfingers 7.12502
rthumb 28.6228 -65.5616
lclavicle -1.11319e-014 6.21202e-014
lhumerus -30.8318 -7.05281 69.1569
lradius 22.249
lwrist -5.06594
lhand 14.2595 -2.43198
lfingers 7.12502
lthumb 39.1542 23.0437
rfemur 3.33527 1.85314 32.7576
rtibia -1.72983
rfoot -2.48589 -25.9393
rtoes 47.3795
lfemur 2.70663 -1.81282 2.05382
ltibia -0.414904
lfoot -1.96121 27.3096
ltoes 41.0821
630
root 14.1406 5.25698 2.92463 93.3474 29.5002 -175.592
lowerback 1.21647 0.432486 6.77098
upperback 1.13954 0.694747 2.29097
thorax 0.541433 0.416543 -1.43819
lowerneck -10.0897 0.3744 -2.15411
upperneck 6.43722 0.502824 3.41319
head 3.91699 0.35784 1.56541
rclavicle -4.85035e-014 6.51517e-014
rhumerus -46.9974 17.6459 -80.8975
rradius 25.3222
rwrist 15.1445
rhand 3.19994 -37.6537
rfingers 7.12502
rthumb 28.6516 -65.4769
lclavicle -4.85035e-014 6.51517e-014
lhumerus -30.77 -7.19158 69.2557
lradius 22.5536
lwrist -3.46372
lhand 14.0171 -2.7088
lfingers 7.12502
lthumb 38.9256 22.8325
rfemur 2.695 1.91974 32.726
rtibia -1.50576
rfoot -4.00019 -25.1672
rtoes 46.5776
lfemur 1.97563 -2.40937 2.21239
ltibia -0.517609
lfoot -3.83277 26.6414
ltoes 38.9616
631
root 14.1352 5.26085 2.94391 93.5265 29.5018 -175.473
lowerback 1.0284 0.423501 6.72609
upperback 1.06988 0.668301 2.30879
thorax 0.572367 0.40199 -1.3934
lowerneck -10.0184 0.322269 -2.08201
upperneck 6.02218 0.444772 3.24788
head 3.75655 0.32144 1.48579
rclavicle -1.19271e-014 1.32689e-014
rhumerus -47.0075 17.4443 -80.7005
rradius 25.0744
rwrist 14.9043
rhand 3.16723 -37.5788
rfingers 7.12502
rthumb 28.6203 -65.4072
lclavicle -1.19271e-014 1.32689e-014
lhumerus -30.743 -7.20705 69.3137
lradius 22.7956
lwrist -1.85776
lhand 13.7968 -2.95956
lfingers 7.12502
lthumb 38.7179 22.6407
rfemur 2.25423 2.14935 32.6452
rtibia -1.39025
rfoot -5.05128 -24.3173
rtoes 45.3929
lfemur 1.42864 -3.18052 2.28069
ltibia -0.70172
lfoot -5.09996 25.4862
ltoes 36.566
632
root 14.1299 5.26645 2.96092 93.5954 29.46 -175.391
lowerback 0.895369 0.387651 6.60569
upperback 1.04142 0.609504 2.32708
thorax 0.611676 0.372284 -1.3065
lowerneck -9.9478 0.294953 -1.95866
upperneck 5.60784 0.41388 3.06962
head 3.59639 0.299612 1.39519
rclavicle 1.59028e-015 1.31198e-014
rhumerus -46.9777 17.3462 -80.5415
rradius 24.8473
rwrist 14.6128
rhand 3.10928 -37.554
rfingers 7.12502
rthumb 28.565 -65.3918
lclavicle 1.59028e-015 1.31198e-014
lhumerus -30.7454 -7.0935 69.3186
lradius 22.9426
lwrist -0.366914
lhand 13.618 -3.24585
lfingers 7.12502
lthumb 38.5493 22.4018
rfemur 2.00345 2.53024 32.5354
rtibia -1.37383
rfoot -5.6427 -23.5458
rtoes 43.6495
lfemur 1.07251 -3.97019 2.30111
ltibia -0.974634
lfoot -5.91844 24.0171
ltoes 34.1239
